<?xml version="1.0" standalone="no"?>
<!DOCTYPE svg PUBLIC "-//W3C//DTD SVG 20010904//EN"
 "http://www.w3.org/TR/2001/REC-SVG-20010904/DTD/svg10.dtd">
<svg version="1.0" xmlns="http://www.w3.org/2000/svg"
 width="1730.000000pt" height="1730.000000pt" viewBox="0 0 1730.000000 1730.000000"
 preserveAspectRatio="xMidYMid meet">
<metadata>
Created by potrace 1.11, written by Peter Selinger 2001-2013
</metadata>
<g transform="translate(0.000000,1730.000000) scale(0.100000,-0.100000)"
fill="#000000" stroke="none">
<path d="M2787 15073 c-1 -1 -33 -4 -72 -8 -102 -10 -287 -50 -396 -86 -226
-75 -408 -187 -575 -353 -267 -268 -424 -629 -451 -1041 -9 -137 -9 -7376 0
-7500 25 -337 112 -598 282 -851 118 -175 332 -365 522 -462 204 -104 476
-173 746 -188 l107 -6 0 571 0 571 -52 1 c-88 1 -170 9 -251 24 -53 10 -135
46 -194 84 -109 71 -169 163 -187 292 -8 56 -11 1102 -10 3741 1 2014 4 3677
7 3695 18 101 67 196 134 258 43 40 135 87 203 103 25 6 81 14 125 18 44 4 91
8 105 9 14 2 46 3 73 4 l47 1 0 565 0 566 -81 -3 c-44 -2 -81 -4 -82 -5z"/>
<path d="M7957 15005 c-10 -42 -17 -85 -17 -96 0 -11 -4 -18 -8 -15 -4 2 -7
-8 -6 -22 1 -15 -2 -36 -7 -48 -4 -11 -10 -34 -12 -50 -3 -16 -10 -51 -17 -79
-7 -27 -14 -63 -16 -80 -3 -16 -7 -37 -10 -45 -9 -24 -18 -73 -18 -102 -1 -16
-4 -28 -7 -28 -4 0 -9 -15 -13 -32 -10 -53 -13 -69 -29 -143 -20 -88 -127
-583 -133 -610 -4 -19 -6 -32 -19 -87 -3 -13 -7 -34 -10 -48 -3 -14 -7 -36
-10 -50 -3 -14 -8 -36 -11 -50 -3 -14 -7 -33 -10 -42 -3 -9 -7 -27 -9 -40 -18
-100 -30 -148 -35 -148 -3 0 -6 -10 -6 -22 0 -13 -5 -48 -12 -78 -7 -30 -15
-66 -18 -80 -9 -42 -14 -64 -29 -132 -3 -13 -7 -35 -10 -50 -3 -16 -12 -58
-21 -95 -9 -38 -18 -79 -20 -93 -3 -14 -13 -61 -23 -105 -11 -44 -22 -99 -26
-122 -4 -24 -11 -43 -16 -43 -6 0 -47 24 -92 53 -45 29 -125 80 -177 113 -52
32 -96 62 -98 67 -2 4 -8 7 -12 7 -9 0 -185 110 -207 130 -7 6 -13 7 -13 3 0
-4 -4 -3 -8 3 -9 13 -119 84 -131 84 -5 0 -11 4 -13 8 -1 4 -21 19 -43 32 -22
13 -80 50 -128 82 -48 32 -89 58 -92 58 -2 0 -43 26 -92 58 -48 32 -96 61
-105 65 -10 3 -18 11 -18 17 0 5 -5 10 -11 10 -5 0 -142 84 -304 188 -162 103
-312 198 -335 212 -102 63 -275 175 -280 180 -6 6 -31 22 -80 50 -19 11 -105
65 -190 120 -85 55 -159 100 -165 100 -5 0 -223 -214 -483 -474 l-473 -474 41
-67 c22 -37 63 -100 90 -142 28 -41 50 -76 50 -79 0 -4 58 -93 101 -156 11
-15 19 -32 19 -38 0 -5 4 -10 9 -10 5 0 11 -8 15 -17 3 -10 44 -76 90 -148
148 -227 281 -439 284 -452 2 -7 7 -13 11 -13 5 0 19 -20 32 -45 13 -25 27
-45 31 -45 5 0 8 -4 8 -10 0 -11 91 -156 114 -182 9 -10 16 -21 16 -25 0 -4
15 -30 34 -58 78 -117 141 -220 139 -227 -2 -4 1 -8 6 -8 9 0 71 -96 71 -111
0 -5 5 -9 10 -9 6 0 10 -7 10 -15 0 -8 3 -15 8 -15 4 0 13 -13 20 -28 6 -16
21 -38 32 -50 11 -12 20 -24 20 -28 0 -3 25 -44 55 -89 30 -46 55 -88 55 -94
0 -5 3 -11 8 -13 11 -5 153 -230 148 -235 -4 -5 -62 -19 -116 -29 -13 -3 -60
-14 -105 -24 -45 -10 -92 -21 -105 -24 -14 -2 -47 -10 -75 -16 -27 -6 -61 -14
-74 -16 -12 -3 -53 -12 -90 -21 -36 -8 -75 -17 -86 -18 -18 -3 -69 -15 -130
-31 -11 -3 -32 -7 -47 -9 -16 -2 -43 -8 -62 -14 -19 -5 -37 -6 -40 -3 -3 3 -6
1 -6 -4 0 -8 -26 -13 -82 -17 -10 -1 -18 -4 -18 -8 0 -4 -8 -6 -17 -4 -10 1
-22 -1 -28 -5 -5 -5 -13 -8 -18 -8 -4 -1 -33 -6 -65 -13 -31 -7 -60 -12 -63
-11 -4 1 -22 -3 -40 -9 -19 -6 -45 -12 -59 -15 -14 -2 -43 -8 -65 -14 -114
-27 -174 -41 -215 -49 -25 -5 -90 -19 -145 -31 -55 -12 -109 -24 -120 -25 -11
-2 -20 -4 -20 -5 0 -2 -32 -9 -65 -15 -14 -2 -26 -4 -27 -6 -4 -2 -13 -5 -58
-14 -66 -13 -69 -14 -103 -24 -18 -5 -33 -10 -35 -9 -1 0 -20 -4 -42 -8 -22
-4 -47 -9 -55 -10 -8 -1 -24 -5 -35 -9 -20 -6 -20 -14 -20 -670 0 -365 2 -665
5 -668 4 -3 366 -108 425 -123 27 -7 37 -10 55 -16 18 -7 208 -59 230 -63 8
-2 16 -4 18 -5 1 -2 6 -3 11 -4 5 0 13 -4 17 -8 4 -5 17 -8 28 -8 12 0 41 -7
66 -16 25 -9 53 -18 64 -20 10 -2 48 -12 85 -23 91 -28 211 -62 230 -66 9 -2
27 -8 41 -13 14 -5 27 -10 30 -10 9 0 94 -23 110 -29 8 -3 20 -7 25 -8 8 -2
147 -41 210 -59 6 -2 18 -6 27 -10 9 -4 22 -5 28 -1 5 3 10 2 10 -3 0 -5 6 -9
13 -9 12 -1 119 -30 147 -41 17 -6 16 -5 90 -27 30 -9 62 -17 70 -19 8 -2 96
-27 195 -56 99 -29 187 -54 195 -55 8 -2 17 -4 20 -6 3 -1 10 -3 15 -4 6 -2
12 -4 15 -5 3 -1 12 -3 20 -5 70 -19 155 -46 162 -53 4 -4 10 -23 12 -42 5
-35 53 -272 61 -300 3 -8 12 -44 20 -80 8 -36 20 -73 25 -83 6 -10 8 -22 5
-27 -3 -5 -1 -11 4 -14 5 -3 12 -23 16 -43 4 -21 10 -42 14 -48 6 -8 12 -26
36 -105 1 -3 5 -14 9 -25 4 -11 17 -45 28 -75 11 -30 24 -64 29 -75 4 -11 29
-69 55 -130 50 -120 176 -378 195 -401 6 -8 8 -14 3 -14 -5 0 -4 -4 2 -8 5 -4
28 -38 49 -77 22 -38 47 -83 57 -100 9 -16 20 -38 24 -47 3 -10 10 -18 15 -18
5 0 9 -4 9 -9 0 -9 118 -194 139 -218 6 -7 11 -14 11 -17 0 -6 182 -251 220
-296 8 -10 24 -29 34 -42 129 -157 311 -350 442 -468 109 -97 182 -160 189
-160 4 0 15 -8 24 -18 39 -45 290 -211 420 -279 36 -18 69 -37 75 -42 6 -4 34
-16 61 -27 28 -10 52 -21 55 -24 15 -17 300 -104 380 -116 19 -3 42 -7 50 -10
28 -10 305 -13 365 -4 33 5 80 12 105 16 25 3 53 10 62 15 9 5 21 8 25 8 4 -1
15 0 23 3 8 3 49 16 90 29 82 25 295 114 310 129 3 3 34 20 70 39 36 19 116
68 179 110 63 42 122 81 130 86 9 6 18 13 21 16 3 4 37 30 75 60 39 29 79 61
90 71 214 192 362 341 490 493 28 33 60 71 73 85 13 14 32 40 43 58 11 17 24
32 29 32 5 0 11 8 14 18 3 9 16 29 28 44 42 50 59 73 76 101 9 15 20 27 24 27
4 0 8 5 8 11 0 11 50 82 63 87 4 2 7 8 7 13 0 9 48 88 60 99 3 3 19 28 35 55
15 28 31 52 34 55 4 3 12 16 18 30 7 14 25 48 41 75 16 28 39 67 51 88 12 21
29 49 37 63 9 13 13 24 9 24 -3 0 2 12 13 28 34 50 131 260 203 442 28 69 55
136 61 150 6 14 11 29 10 33 -1 4 3 18 10 30 7 12 13 24 13 27 0 3 11 39 24
80 13 41 25 82 25 90 1 9 5 20 8 25 9 14 39 127 40 153 1 6 5 12 10 12 5 0 7
4 4 8 -2 4 2 37 10 72 8 36 17 79 20 95 7 42 14 77 19 95 2 8 4 27 4 41 1 25
23 37 100 54 9 2 88 25 176 50 147 43 319 92 355 101 60 15 200 57 220 66 14
6 41 13 60 15 19 2 39 8 46 14 7 5 16 9 20 7 5 -1 41 8 79 19 61 19 190 56
235 68 8 2 103 29 210 60 107 31 206 59 220 62 14 2 32 7 40 10 8 4 17 7 20 8
15 4 97 28 110 31 8 2 62 17 120 34 98 29 122 35 160 45 8 2 15 4 15 5 0 1 7
3 15 5 8 2 103 29 210 60 107 31 209 60 225 64 l30 7 1 659 c0 363 -1 665 -3
670 -2 6 -11 12 -21 13 -20 2 -57 10 -57 12 0 1 -11 3 -25 5 -14 2 -45 8 -70
15 -25 6 -58 13 -75 16 -16 3 -35 10 -41 15 -6 5 -13 6 -16 4 -3 -3 -25 -1
-49 5 -65 16 -79 19 -139 31 -30 5 -68 14 -85 19 -16 5 -45 12 -63 15 -19 3
-73 15 -120 26 -102 24 -140 32 -164 33 -10 0 -18 4 -18 8 0 4 -3 7 -7 6 -11
-3 -135 22 -153 31 -8 4 -25 7 -37 6 -13 -1 -23 2 -23 7 0 5 -4 6 -10 3 -5 -3
-16 -3 -22 2 -7 4 -24 9 -38 9 -14 1 -26 3 -27 4 -2 1 -7 4 -13 5 -5 1 -11 3
-12 4 -2 2 -14 4 -28 7 -49 8 -215 45 -230 51 -8 4 -18 6 -22 5 -4 -1 -33 5
-65 13 -32 8 -69 16 -83 19 -14 2 -88 19 -165 36 -77 17 -147 33 -155 35 -176
37 -347 78 -354 85 -4 5 3 24 18 43 14 18 26 36 26 39 0 6 63 105 80 125 6 7
10 16 10 21 0 4 9 18 20 29 11 12 21 28 22 35 2 7 8 17 13 24 8 9 140 215 178
279 7 10 17 24 22 30 6 6 19 28 30 48 11 20 23 37 27 37 5 0 8 5 8 11 0 6 14
30 30 54 17 24 30 45 30 48 0 3 76 121 120 187 45 68 90 142 90 150 0 6 3 10
8 10 4 0 20 24 36 53 16 28 32 54 35 57 4 3 44 66 90 140 46 74 92 144 101
155 10 11 19 25 21 30 2 6 33 57 69 113 36 56 72 114 80 127 8 13 44 70 80
125 36 56 69 110 75 120 5 11 13 20 17 20 5 0 8 6 8 13 0 7 7 22 15 32 29 39
75 110 75 119 0 4 -213 222 -474 483 l-474 474 -38 -21 c-20 -12 -64 -39 -96
-61 -33 -21 -63 -39 -67 -39 -4 0 -17 -9 -29 -20 -12 -12 -22 -18 -22 -15 0 4
-18 -7 -39 -24 -21 -17 -41 -31 -45 -31 -3 0 -38 -21 -78 -47 -40 -27 -81 -52
-90 -58 -60 -34 -144 -90 -146 -97 -2 -4 -8 -8 -12 -8 -7 0 -144 -82 -200
-120 -49 -33 -122 -80 -125 -80 -2 0 -31 -18 -64 -40 -33 -22 -63 -40 -66 -40
-3 0 -14 -8 -25 -17 -10 -10 -36 -27 -57 -38 -21 -11 -40 -23 -43 -26 -3 -3
-16 -12 -29 -19 -14 -7 -30 -17 -35 -21 -18 -15 -166 -109 -171 -109 -3 0 -27
-16 -54 -35 -26 -19 -51 -35 -55 -35 -3 0 -28 -15 -55 -34 -27 -19 -52 -32
-55 -29 -3 4 -6 1 -6 -5 0 -7 -7 -12 -15 -12 -8 0 -15 -5 -15 -11 0 -5 -4 -7
-10 -4 -5 3 -10 2 -10 -3 0 -8 -33 -31 -155 -105 -10 -7 -52 -33 -93 -59 -40
-27 -75 -48 -78 -48 -2 0 -27 -16 -54 -35 -27 -19 -52 -35 -55 -35 -4 0 -33
-18 -65 -40 -32 -22 -63 -40 -69 -40 -5 0 -11 -3 -13 -7 -4 -11 -86 -63 -98
-63 -5 0 -10 6 -11 13 0 6 -3 21 -5 32 -8 30 -15 68 -16 83 -1 6 -5 12 -10 12
-5 0 -7 4 -4 8 3 4 1 26 -5 48 -5 21 -16 73 -25 114 -9 41 -18 82 -20 90 -21
86 -26 108 -30 130 -2 14 -14 66 -25 115 -12 50 -22 97 -24 105 -2 8 -11 49
-20 90 -10 41 -18 82 -20 90 -1 8 -5 22 -8 30 -9 26 -32 144 -31 163 1 9 -2
17 -6 17 -4 0 -7 6 -8 13 -6 44 -10 72 -12 72 -2 0 -4 9 -6 20 -1 11 -5 29 -8
40 -3 11 -15 63 -26 115 -24 109 -23 103 -44 191 -8 37 -17 78 -20 90 -4 20
-41 185 -61 274 -12 51 -16 72 -20 95 -2 14 -8 38 -15 54 -6 16 -9 31 -6 33 2
3 0 19 -5 36 -6 18 -13 43 -16 57 -10 47 -11 55 -13 60 -1 3 -3 10 -4 15 -6
39 -23 114 -26 118 -5 6 -21 96 -23 125 0 12 -4 22 -7 22 -4 0 -7 6 -7 13 0 6
-4 26 -8 42 -4 17 -9 42 -12 58 l-5 27 -678 0 -677 0 -16 -75z m778 -717 c4
-24 10 -50 12 -58 2 -8 5 -24 7 -35 2 -11 6 -27 9 -35 3 -8 8 -28 11 -45 6
-32 21 -105 24 -117 2 -4 4 -13 7 -20 4 -15 36 -163 40 -193 2 -11 4 -21 5
-22 2 -2 4 -7 5 -13 1 -5 3 -11 4 -12 2 -2 4 -16 6 -32 5 -34 43 -209 55 -251
5 -16 11 -43 14 -60 2 -16 9 -52 16 -80 13 -57 18 -80 25 -115 3 -14 9 -40 14
-58 5 -18 10 -35 10 -37 0 -3 2 -18 5 -33 12 -51 17 -77 22 -102 3 -14 9 -41
14 -60 15 -59 22 -94 24 -117 0 -13 4 -23 8 -23 4 0 5 -9 3 -20 -2 -11 0 -22
4 -25 5 -2 12 -26 16 -52 5 -27 9 -52 11 -58 1 -5 8 -39 15 -75 7 -36 16 -67
19 -70 3 -3 6 -14 7 -25 1 -11 4 -31 7 -45 9 -38 16 -73 20 -95 2 -11 13 -60
24 -110 42 -183 73 -321 77 -343 2 -13 6 -31 9 -40 3 -9 8 -32 11 -51 3 -19 8
-37 10 -40 7 -13 15 -96 8 -86 -4 6 -26 12 -48 14 -22 2 -44 6 -50 9 -5 3 -16
7 -25 8 -8 0 -37 4 -65 7 -96 12 -170 19 -220 22 -27 2 -50 4 -50 5 0 5 -356
5 -397 0 -28 -4 -48 -2 -48 3 0 6 -5 6 -12 0 -7 -6 -20 -10 -28 -10 -20 -1
-138 -12 -175 -18 -16 -2 -46 -6 -65 -9 -19 -3 -45 -7 -56 -10 -12 -2 -38 -7
-59 -10 -36 -6 -36 -6 -31 21 4 16 8 38 11 51 2 13 6 31 9 40 3 9 7 28 10 42
3 14 16 77 31 140 14 63 27 125 30 138 2 12 6 30 9 40 6 19 14 61 22 107 3 17
8 37 11 45 3 8 8 24 10 35 1 11 10 52 19 90 9 39 18 81 20 95 3 14 9 41 14 60
8 32 15 63 25 115 8 38 13 60 16 60 1 0 3 9 4 20 4 29 13 72 19 93 3 9 7 28
10 42 3 14 7 34 10 45 5 23 35 158 43 195 3 14 6 30 7 35 1 6 8 37 15 70 7 33
16 74 21 90 5 17 11 44 13 60 3 17 9 48 15 70 6 22 14 55 17 74 3 19 7 37 9
40 2 3 7 22 10 41 6 36 6 39 29 133 8 31 12 57 9 57 -3 0 -1 5 5 11 6 6 9 18
6 25 -3 8 -1 14 3 14 5 0 9 10 10 23 2 31 15 100 21 111 3 5 8 27 11 50 2 23
7 43 11 46 3 3 7 14 8 25 3 29 10 64 23 120 17 73 18 78 19 98 1 15 12 17 80
17 l78 0 8 -42z m-3690 -1327 c44 -28 87 -56 95 -61 8 -5 50 -32 93 -60 43
-27 82 -50 87 -50 6 0 10 -3 10 -8 0 -4 20 -18 45 -31 25 -13 45 -28 45 -32 0
-5 6 -9 14 -9 8 0 21 -6 28 -13 7 -7 20 -16 28 -20 15 -7 46 -26 64 -40 32
-24 119 -77 126 -77 5 0 13 -7 18 -16 5 -9 11 -14 13 -12 3 1 58 -31 122 -72
64 -41 168 -107 229 -147 62 -39 118 -77 125 -82 7 -6 15 -11 18 -11 3 0 44
-25 90 -55 47 -30 89 -55 95 -55 5 0 10 -4 10 -10 0 -5 7 -10 15 -10 8 0 15
-3 15 -8 0 -4 17 -16 38 -27 20 -11 42 -23 47 -28 22 -17 147 -97 151 -97 5 0
116 -72 124 -80 3 -3 17 -11 33 -19 15 -8 27 -18 27 -23 0 -4 5 -8 10 -8 9 0
88 -47 100 -60 3 -3 16 -11 30 -18 14 -7 59 -35 100 -62 69 -45 177 -114 225
-143 10 -7 25 -18 33 -24 7 -7 19 -13 27 -13 7 0 15 -6 17 -12 3 -8 -53 -41
-141 -86 -80 -40 -153 -80 -162 -88 -8 -8 -18 -14 -22 -14 -19 0 -275 -186
-376 -274 -92 -80 -284 -282 -352 -371 -45 -58 -43 -58 -88 11 -22 36 -41 69
-41 75 0 5 -4 9 -9 9 -5 0 -14 14 -21 30 -7 17 -16 30 -21 30 -5 0 -9 7 -9 15
0 8 -4 15 -10 15 -5 0 -10 5 -10 11 0 5 -18 37 -40 69 -22 32 -40 64 -40 69 0
6 -4 11 -10 11 -5 0 -10 7 -10 15 0 8 -4 15 -9 15 -5 0 -11 8 -14 18 -4 9 -34
58 -67 107 -33 50 -63 96 -67 104 -7 15 -105 168 -120 186 -4 6 -17 26 -27 45
-11 19 -22 37 -25 40 -10 9 -31 44 -37 63 -4 9 -9 17 -13 17 -4 0 -15 17 -26
38 -11 20 -23 39 -26 42 -3 3 -12 16 -19 29 -7 14 -17 30 -22 35 -16 20 -100
155 -99 161 1 3 -3 11 -9 18 -43 50 -60 73 -60 79 0 3 -36 62 -80 130 -108
169 -179 279 -193 303 -7 11 -28 45 -48 75 -20 30 -52 80 -71 110 -19 30 -74
116 -121 191 -48 75 -87 140 -87 144 0 5 24 32 52 61 l53 51 35 -22 c19 -12
71 -45 115 -74z m7278 -66 c26 -25 47 -47 47 -49 0 -3 -36 -60 -79 -128 -44
-68 -107 -167 -141 -220 -33 -54 -68 -104 -76 -112 -8 -9 -15 -18 -14 -21 1
-18 -2 -25 -14 -38 -19 -18 -176 -266 -176 -277 0 -5 -4 -10 -8 -12 -4 -1 -39
-52 -77 -113 -64 -103 -89 -142 -230 -360 -30 -47 -55 -87 -55 -90 0 -3 -5
-11 -10 -18 -23 -28 -90 -135 -90 -145 0 -6 -4 -12 -8 -14 -5 -1 -61 -86 -125
-188 -65 -102 -122 -192 -127 -200 -6 -8 -32 -49 -58 -90 -26 -41 -63 -99 -82
-127 -18 -29 -35 -53 -36 -53 -6 0 -74 75 -74 82 0 10 -234 243 -300 300 -30
26 -89 72 -130 103 -41 31 -83 63 -93 71 -9 8 -20 14 -23 14 -5 0 -66 41 -74
51 -3 3 -12 9 -20 12 -8 4 -37 20 -65 37 -27 16 -97 53 -155 82 -58 29 -107
53 -109 55 -6 4 42 42 53 43 5 0 24 11 42 25 18 14 37 25 42 25 5 0 17 9 27
20 10 11 24 20 32 20 7 0 13 5 13 11 0 5 5 7 10 4 6 -3 13 1 16 9 3 9 11 16
17 16 5 0 33 15 61 34 28 19 53 33 56 32 3 0 13 6 23 14 39 34 58 46 109 75
23 13 183 115 228 145 65 44 191 120 199 120 5 0 11 3 13 8 2 4 28 23 58 42
30 19 60 38 65 43 6 4 34 23 62 40 104 63 368 231 373 237 3 4 12 10 20 14 26
12 157 95 248 157 23 16 45 29 49 29 3 0 20 11 37 23 17 13 54 37 81 52 28 16
52 32 55 35 3 4 28 20 55 35 28 16 52 32 55 35 3 4 28 20 55 35 28 16 52 32
55 35 3 4 21 15 40 26 19 10 43 27 54 37 30 26 46 21 99 -28z m-3443 -1950
c19 -3 58 -7 86 -10 48 -4 177 -26 234 -39 14 -4 34 -8 45 -10 11 -2 32 -9 48
-15 15 -6 27 -8 27 -6 0 5 208 -67 255 -89 17 -8 40 -17 53 -21 12 -3 22 -11
22 -17 0 -6 3 -9 6 -5 7 7 136 -59 145 -75 3 -5 10 -10 15 -10 17 -1 54 -21
54 -30 0 -4 5 -8 11 -8 12 0 152 -100 157 -112 2 -5 8 -8 13 -8 17 0 186 -162
269 -259 62 -71 190 -246 190 -259 0 -4 9 -18 20 -30 12 -12 18 -22 14 -22 -3
0 -1 -7 6 -15 12 -15 80 -141 80 -150 0 -2 -25 9 -55 26 -30 16 -55 26 -55 22
0 -4 -5 0 -11 10 -5 9 -16 17 -23 17 -8 0 -47 15 -87 34 -145 65 -498 186
-546 186 -12 0 -24 4 -27 9 -5 7 -41 16 -116 28 -14 2 -36 8 -50 13 -14 5 -41
12 -60 15 -19 3 -44 7 -55 9 -11 2 -38 6 -60 10 -22 3 -62 9 -90 14 -27 5 -57
10 -65 10 -8 0 -33 4 -55 7 -67 11 -177 21 -320 31 -203 13 -566 8 -765 -12
-64 -6 -135 -14 -170 -19 -19 -2 -57 -7 -85 -11 -27 -3 -53 -11 -57 -18 -6 -8
-8 -7 -8 2 0 7 -4 11 -9 8 -5 -3 -26 -8 -46 -12 -21 -3 -47 -8 -59 -10 -11 -2
-37 -7 -56 -10 -19 -3 -42 -8 -50 -11 -8 -3 -24 -7 -35 -9 -40 -7 -50 -10 -63
-18 -7 -4 -16 -6 -19 -3 -3 3 -17 1 -32 -5 -14 -5 -35 -11 -46 -13 -11 -2 -45
-11 -75 -21 -30 -9 -62 -18 -70 -19 -8 -1 -24 -6 -35 -10 -11 -4 -27 -9 -35
-12 -8 -4 -19 -7 -25 -8 -26 -7 -142 -49 -160 -58 -23 -13 -20 -12 -62 -22
-18 -4 -33 -11 -33 -16 0 -5 -3 -8 -7 -8 -13 3 -75 -23 -173 -73 -52 -26 -99
-48 -104 -48 -4 0 -1 11 8 25 9 14 13 25 9 25 -5 0 -3 4 2 8 6 4 18 23 28 42
32 60 52 95 57 100 3 3 26 36 50 75 101 156 353 425 449 479 9 5 18 12 21 15
25 29 206 142 310 193 142 69 311 132 427 159 50 11 52 11 123 27 80 18 188
31 325 39 50 3 91 6 93 8 4 4 262 -4 302 -10z m-2966 -1041 c-24 -58 -42 -110
-39 -114 3 -5 1 -10 -3 -12 -17 -7 -135 -407 -146 -498 -2 -14 -9 -52 -15 -85
-18 -103 -22 -129 -26 -160 -2 -16 -6 -57 -10 -90 -5 -33 -9 -71 -10 -85 -2
-14 -3 -28 -4 -31 -1 -5 -64 11 -111 29 -8 3 -18 5 -22 4 -4 -1 -20 3 -35 9
-15 6 -30 11 -33 11 -9 1 -105 29 -120 35 -8 3 -28 7 -43 9 -16 1 -34 7 -40
12 -7 5 -28 13 -47 17 -19 3 -64 15 -100 26 -124 37 -275 80 -291 84 -23 5
-102 26 -119 33 -8 3 -19 6 -25 8 -33 9 -127 37 -170 49 -27 9 -61 18 -75 20
-14 3 -32 8 -40 12 -8 3 -19 7 -25 8 -5 0 -17 4 -25 7 -8 4 -28 10 -45 14 -16
4 -37 9 -45 11 -8 3 -23 5 -32 7 -10 1 -21 5 -24 9 -4 4 -18 7 -31 7 -13 0
-23 4 -23 8 0 4 -8 8 -17 9 -10 1 -83 20 -163 43 -80 23 -154 44 -165 47 -19
4 -21 11 -19 76 3 112 2 109 27 106 12 -1 29 1 37 4 15 6 90 24 140 33 14 3
43 10 64 15 22 6 51 12 65 14 14 2 26 4 26 5 0 2 21 7 60 15 26 5 132 28 295
64 77 18 313 71 354 81 22 5 43 7 48 4 4 -3 8 -1 8 4 0 5 6 9 13 9 34 2 74 10
85 17 7 4 16 5 21 1 5 -3 12 -1 16 4 3 5 13 9 23 9 9 0 37 5 62 11 25 6 60 14
79 17 19 2 40 9 46 14 7 6 14 8 17 5 3 -3 32 1 64 9 32 9 70 17 84 20 14 2 48
10 75 16 28 6 57 13 65 15 24 6 203 45 225 49 11 3 34 7 50 11 17 3 38 8 47
11 9 3 26 7 39 9 12 2 24 7 27 9 3 3 8 3 13 1 4 -3 -12 -53 -37 -111z m5466
99 c0 3 17 1 37 -5 21 -6 47 -12 58 -13 11 -2 63 -13 115 -25 52 -12 104 -23
115 -25 11 -3 34 -8 50 -12 17 -4 35 -7 40 -8 6 -1 12 -3 15 -4 3 -1 16 -4 30
-7 14 -2 65 -13 113 -24 48 -12 92 -18 97 -15 6 3 10 2 10 -3 0 -4 28 -14 63
-21 105 -20 111 -22 147 -31 19 -5 50 -12 69 -15 19 -3 37 -8 41 -10 4 -2 22
-7 41 -10 19 -3 54 -11 79 -16 25 -6 54 -13 65 -15 11 -2 79 -17 150 -34 72
-17 146 -33 165 -36 19 -2 60 -11 90 -19 30 -8 66 -16 80 -19 14 -2 45 -9 70
-15 25 -5 56 -12 70 -15 14 -3 36 -8 50 -11 14 -4 34 -8 45 -10 60 -12 83 -17
110 -25 17 -5 44 -11 62 -13 62 -9 68 -18 69 -106 0 -87 5 -80 -66 -96 -8 -2
-55 -16 -105 -30 -49 -15 -97 -29 -105 -30 -8 -2 -54 -15 -101 -29 -48 -14
-95 -27 -105 -29 -11 -2 -26 -7 -34 -10 -44 -17 -155 -45 -162 -41 -4 3 -8 1
-8 -3 0 -5 -21 -14 -47 -21 -27 -6 -55 -14 -63 -16 -8 -2 -89 -25 -180 -51
-91 -26 -172 -49 -180 -51 -8 -2 -53 -15 -100 -29 -47 -15 -96 -28 -110 -31
-14 -2 -36 -9 -50 -14 -14 -5 -92 -28 -175 -50 -82 -23 -157 -43 -165 -46 -8
-3 -17 -6 -20 -6 -3 0 -25 -7 -50 -14 -60 -18 -66 -18 -67 9 -1 35 -13 146
-24 222 -6 39 -13 86 -16 105 -11 74 -64 299 -94 395 -11 39 -22 78 -22 88 -1
9 -4 17 -8 17 -4 0 -10 16 -14 36 -3 21 -13 46 -20 58 -8 12 -14 24 -15 28 -3
33 -14 68 -21 68 -5 0 -8 3 -7 8 1 4 -3 18 -9 32 -6 14 -18 42 -26 62 -16 39
-12 55 10 37 7 -6 13 -9 13 -6z m-2455 -557 c133 -9 241 -20 335 -36 30 -5 69
-11 85 -13 99 -15 404 -88 475 -115 8 -3 18 -6 23 -7 4 -2 9 -4 12 -5 8 -4 17
-7 53 -15 18 -4 35 -12 38 -16 3 -5 14 -9 25 -9 10 0 19 -4 19 -10 0 -5 3 -9
8 -8 12 4 70 -20 209 -89 380 -185 616 -423 680 -683 7 -26 6 -129 -1 -190 -8
-66 -18 -135 -23 -165 -3 -16 -6 -39 -8 -50 -1 -11 -5 -27 -8 -35 -4 -8 -8
-26 -11 -40 -2 -14 -10 -47 -16 -75 -6 -27 -13 -57 -15 -65 -19 -80 -125 -393
-155 -455 -10 -20 -32 -76 -35 -85 0 -3 -9 -19 -18 -37 -9 -18 -17 -38 -17
-46 0 -8 -7 -18 -16 -21 -8 -3 -13 -10 -10 -14 6 -11 -131 -283 -155 -306 -5
-6 -9 -18 -9 -28 0 -10 -4 -18 -9 -18 -5 0 -18 -18 -29 -39 -25 -48 -44 -81
-55 -95 -4 -6 -26 -40 -48 -76 -23 -36 -45 -66 -50 -68 -5 -2 -9 -10 -9 -18 0
-8 -4 -14 -10 -14 -5 0 -10 -6 -10 -13 0 -7 -8 -22 -18 -33 -15 -17 -39 -49
-67 -92 -5 -8 -17 -23 -25 -32 -8 -9 -42 -51 -75 -94 -33 -43 -73 -92 -90
-110 -16 -18 -44 -49 -61 -69 -60 -71 -125 -137 -134 -137 -6 0 -10 -4 -10 -8
0 -28 -255 -246 -405 -346 -71 -47 -226 -139 -232 -137 -2 0 -22 -8 -45 -18
-61 -26 -165 -58 -218 -68 -85 -15 -340 -3 -340 16 0 4 -8 8 -17 9 -35 4 -53
8 -59 15 -4 4 -13 7 -19 7 -7 0 -39 12 -71 26 -33 14 -61 26 -64 26 -3 0 -9 3
-15 8 -5 4 -32 20 -60 35 -79 44 -243 158 -325 227 -183 153 -443 432 -597
643 -20 28 -49 67 -65 87 -15 20 -28 41 -28 47 0 5 -3 11 -7 13 -11 5 -93 127
-93 138 0 6 -4 10 -10 10 -5 0 -10 4 -10 10 0 5 -20 41 -44 79 -25 38 -42 72
-39 75 4 3 2 6 -3 6 -5 0 -30 39 -54 87 -25 49 -47 90 -50 93 -6 6 -67 130
-98 200 -11 25 -32 71 -46 103 -14 32 -26 59 -26 61 0 2 -8 21 -17 42 -9 22
-18 44 -19 49 -2 6 -27 82 -57 170 -49 145 -74 237 -69 258 1 4 -2 7 -7 7 -6
0 -10 8 -9 18 0 9 -8 51 -17 92 -9 41 -19 89 -21 105 -2 17 -6 46 -9 65 -6 45
-17 156 -19 195 -1 17 2 46 6 65 5 19 10 42 11 50 2 8 13 37 25 64 12 27 22
50 22 53 0 32 250 313 278 313 6 0 12 4 14 8 2 4 26 23 53 42 28 19 52 37 55
40 9 10 123 75 205 117 116 59 272 123 390 160 28 8 55 19 61 24 6 5 13 6 16
4 3 -3 25 1 49 9 24 8 55 17 69 20 14 2 63 14 110 25 47 11 103 23 125 26 22
4 47 8 55 10 8 2 35 7 60 10 25 3 52 8 60 10 8 2 42 7 75 10 33 3 80 8 105 11
25 3 99 8 165 11 66 3 121 6 122 7 4 4 298 -2 388 -8z"/>
<path d="M7150 7953 l0 -378 552 2 c304 2 558 5 563 7 7 2 10 133 10 372 l0
369 -562 3 -563 2 0 -377z"/>
<path d="M9029 8328 c-6 -12 -3 -741 3 -744 6 -4 160 -5 946 -4 l172 0 0 375
0 375 -560 0 c-308 0 -561 -1 -561 -2z"/>
<path d="M14350 14510 l0 -570 53 -1 c233 -3 395 -53 509 -158 65 -59 105
-133 123 -227 8 -46 11 -990 10 -3750 -1 -2029 -5 -3698 -8 -3709 -3 -11 -8
-33 -12 -50 -31 -130 -149 -252 -282 -291 -72 -21 -106 -26 -293 -40 -47 -3
-88 -8 -92 -11 -5 -2 -8 -256 -8 -564 l0 -559 111 5 c61 2 119 6 128 9 9 3 38
7 64 11 199 25 419 95 594 191 367 200 649 595 729 1023 9 47 18 95 20 106 2
11 8 56 12 100 9 107 9 7520 -1 7610 -14 126 -18 149 -48 272 -40 163 -90 286
-180 443 -38 66 -154 214 -218 278 -245 243 -533 373 -966 437 -22 3 -86 8
-142 11 l-103 4 0 -570z"/>
<path d="M1817 4124 c-1 -1 -30 -4 -63 -7 -154 -15 -286 -65 -365 -139 -134
-124 -189 -326 -183 -668 3 -195 6 -227 35 -338 86 -337 320 -449 852 -408 83
6 143 16 306 53 22 5 23 8 16 68 -3 34 -8 84 -11 111 -3 27 -7 60 -8 74 -2 14
-4 42 -4 63 l-2 38 -152 -7 c-206 -9 -355 -9 -400 0 -70 13 -99 50 -125 161
-9 41 -10 333 0 405 11 88 31 135 70 164 27 20 43 21 280 23 139 2 261 3 273
3 15 0 21 7 21 28 1 15 4 52 7 82 3 30 8 82 11 115 3 33 8 72 11 87 3 14 0 29
-5 33 -21 12 -208 44 -301 50 -94 7 -259 12 -263 9z"/>
<path d="M4308 4125 c-2 -2 -30 -7 -63 -10 -77 -9 -192 -45 -249 -79 -85 -50
-155 -148 -194 -271 -38 -121 -47 -204 -47 -425 0 -268 20 -390 85 -520 102
-202 275 -273 650 -266 153 4 182 6 250 22 14 3 36 8 49 10 42 8 145 61 183
94 63 54 135 180 152 262 3 13 10 48 16 78 36 181 31 492 -10 684 -52 240
-182 362 -430 408 -51 9 -384 20 -392 13z m260 -381 c37 -28 70 -97 81 -174
10 -69 8 -428 -3 -495 -9 -54 -41 -116 -71 -138 -28 -20 -106 -37 -144 -31
-66 11 -80 17 -110 48 -48 49 -64 139 -65 366 -1 260 11 338 61 399 50 58 186
72 251 25z"/>
<path d="M15463 4118 c-303 -31 -456 -153 -523 -415 -27 -104 -35 -188 -35
-373 0 -177 7 -246 35 -357 77 -300 273 -422 675 -417 104 1 243 11 289 20 12
2 37 7 56 10 55 8 150 36 156 45 4 7 -11 186 -21 244 -2 11 -4 37 -4 58 l-1
38 -157 -7 c-87 -4 -207 -7 -268 -7 -235 0 -259 37 -259 398 0 181 12 259 47
309 37 52 64 57 337 56 138 -1 254 1 259 5 5 3 9 13 9 23 -1 16 4 71 19 202
13 113 13 113 -37 127 -24 7 -67 15 -94 19 -28 3 -53 7 -57 9 -21 13 -332 23
-426 13z"/>
<path d="M8048 4115 c-2 -2 -42 -5 -90 -6 -47 -1 -103 -5 -124 -8 l-39 -6 0
-758 0 -757 232 0 c128 0 233 3 234 8 0 4 2 128 2 277 l2 270 80 -2 c44 0 92
-2 106 -2 57 -2 81 -48 115 -216 10 -50 66 -311 70 -322 3 -10 62 -13 253 -13
l249 0 -8 33 c-39 165 -125 489 -136 515 -34 74 -95 123 -184 147 -48 13 -47
15 40 39 104 29 178 99 211 201 19 58 17 247 -4 315 -44 147 -139 223 -331
267 -55 13 -138 17 -372 19 -166 2 -304 1 -306 -1z m476 -343 c52 -14 71 -53
71 -141 0 -136 -21 -153 -206 -159 l-126 -4 2 159 c1 87 3 158 3 158 20 4 235
-7 256 -13z"/>
<path d="M9500 4084 c-99 -35 -157 -90 -202 -190 -22 -48 -22 -55 -23 -529 -2
-501 2 -557 42 -623 51 -83 131 -139 231 -162 68 -16 720 -4 817 15 11 2 28 4
38 4 16 1 18 8 13 69 -3 37 -8 110 -11 162 -3 52 -8 97 -11 100 -3 3 -128 6
-277 6 -150 1 -282 2 -295 3 -13 1 -34 12 -47 26 -23 22 -25 31 -25 129 l0
106 218 -1 c119 0 247 0 284 1 l66 0 0 155 c1 112 -3 155 -11 156 -7 1 -133 2
-282 3 l-270 1 -3 65 c-4 90 4 125 34 145 22 14 62 16 314 16 160 1 292 4 294
8 3 4 8 50 11 102 3 52 8 124 10 162 5 64 5 67 -17 68 -13 0 -30 2 -39 4 -40
8 -338 18 -556 20 -226 1 -247 0 -303 -21z"/>
<path d="M2570 3480 c1 -510 3 -627 15 -667 33 -110 123 -197 235 -228 73 -19
601 -13 798 10 l54 7 -7 111 c-8 116 -12 186 -14 225 l-1 22 -274 0 -275 0
-26 25 -27 24 0 544 -1 544 -238 1 -239 0 0 -618z"/>
<path d="M5549 4096 c-1 0 -2 -255 -4 -566 -1 -311 -5 -572 -9 -582 -12 -26
-59 -40 -142 -42 -86 -1 -87 -2 -98 -87 -5 -42 -21 -137 -30 -186 -5 -24 14
-40 57 -49 175 -39 383 -42 481 -6 80 29 130 64 162 111 52 80 52 80 53 769
l1 640 -235 0 c-129 0 -236 -1 -236 -2z"/>
<path d="M6236 3577 c3 -539 3 -547 30 -650 71 -274 273 -382 694 -373 85 2
169 7 185 10 180 39 281 101 347 216 27 48 64 158 74 225 3 22 7 277 9 566 l3
527 -239 0 -239 0 -1 -486 c0 -505 -1 -530 -20 -599 -20 -75 -85 -112 -189
-107 -94 4 -139 36 -160 114 -18 66 -19 103 -20 611 l0 467 -238 0 -239 0 3
-521z"/>
<path d="M11376 4091 c-8 -12 -125 -240 -276 -536 -84 -165 -194 -381 -245
-480 -51 -99 -147 -287 -214 -418 -67 -130 -120 -241 -117 -245 3 -5 282 -8
343 -3 6 1 24 27 40 59 41 80 299 585 398 777 45 88 162 316 258 507 l177 346
-180 0 c-99 0 -182 -3 -184 -7z"/>
<path d="M11985 4089 c-38 -11 -56 -26 -81 -63 -18 -29 -19 -57 -19 -738 l0
-708 220 0 220 0 -1 363 c-1 313 -6 459 -19 529 -2 10 0 20 4 22 4 3 20 -32
36 -77 33 -99 73 -177 163 -318 219 -345 284 -446 299 -466 35 -43 79 -52 236
-50 164 2 185 10 220 80 18 35 19 77 18 705 0 367 0 681 0 698 l-1 31 -218 1
-218 1 1 -362 c1 -324 9 -508 22 -529 2 -5 0 -8 -5 -8 -5 0 -20 26 -33 58 -36
92 -104 220 -171 324 -35 54 -115 179 -178 279 -66 104 -129 192 -149 207 -32
25 -39 26 -175 28 -77 1 -154 -3 -171 -7z"/>
<path d="M13380 4076 c7 -19 45 -97 227 -476 98 -204 171 -355 219 -458 l44
-94 0 -234 0 -234 240 0 240 0 0 236 c0 268 -14 210 118 484 38 80 92 192 120
250 27 58 88 184 134 280 47 96 93 193 103 215 10 22 20 43 21 46 2 4 -106 7
-240 7 l-244 1 -21 -52 c-48 -114 -183 -460 -186 -475 -1 -10 -8 -46 -15 -82
-17 -91 -18 -96 -32 -82 -7 7 -20 51 -30 100 -11 54 -56 183 -119 338 l-100
252 -244 0 -244 0 9 -22z"/>
</g>
</svg>
